<?xml version="1.0" standalone="no"?>
<!DOCTYPE svg PUBLIC "-//W3C//DTD SVG 20010904//EN"
 "http://www.w3.org/TR/2001/REC-SVG-20010904/DTD/svg10.dtd">
<svg version="1.0" xmlns="http://www.w3.org/2000/svg"
 width="800.000000pt" height="600.000000pt" viewBox="0 0 800.000000 600.000000"
 preserveAspectRatio="xMidYMid meet">

<g transform="translate(0.000000,600.000000) scale(0.100000,-0.100000)"
fill="#000000" stroke="none">
<path d="M4378 5272 c-29 -19 -55 -36 -57 -38 -2 -2 3 -38 13 -80 9 -42 15
-79 12 -81 -2 -2 -31 3 -64 11 -79 21 -233 21 -303 0 -139 -41 -285 -149 -359
-264 -81 -127 -108 -307 -71 -466 74 -311 392 -515 701 -450 95 20 220 81 287
141 247 219 269 614 48 853 -30 33 -55 62 -55 65 0 3 33 16 73 29 39 12 75 26
78 30 3 5 5 38 5 74 l-1 66 -127 73 -126 73 -54 -36z m156 -95 c82 -48 115
-77 87 -77 -17 0 -211 113 -211 122 0 19 41 4 124 -45z m-84 -71 c0 -16 -27
-52 -34 -46 -3 3 -8 25 -12 49 l-7 43 27 -17 c14 -9 26 -23 26 -29z m98 -44
l22 -17 -45 -16 c-48 -18 -54 -12 -29 26 19 29 22 30 52 7z m-290 -32 c90 -21
192 -79 261 -149 80 -80 125 -166 147 -276 37 -187 -16 -357 -153 -497 -91
-92 -219 -147 -358 -153 -153 -8 -288 46 -401 159 -75 75 -107 128 -144 240
-44 134 -14 317 73 449 68 102 206 199 322 226 54 12 200 13 253 1z"/>
<path d="M4016 4999 c-78 -18 -183 -77 -243 -137 -207 -205 -201 -545 14 -742
249 -228 642 -160 801 138 182 342 -70 756 -458 751 -41 -1 -93 -5 -114 -10z
m235 -63 c160 -49 282 -169 321 -316 67 -256 -80 -499 -342 -566 -187 -48
-408 58 -499 239 -127 253 -3 544 274 641 53 18 188 19 246 2z"/>
<path d="M1440 4149 c-15 -17 -35 -40 -44 -50 -22 -26 -30 -24 -73 15 -48 42
-82 51 -114 29 -13 -10 -29 -24 -35 -32 -9 -12 -17 -12 -59 3 -49 16 -112 21
-152 10 -18 -5 -21 -11 -16 -42 3 -21 9 -52 15 -70 9 -29 7 -36 -8 -47 -11 -7
-30 -22 -43 -32 l-24 -20 34 -43 c19 -23 57 -55 84 -71 42 -24 51 -34 53 -59
3 -37 -8 -58 -48 -98 -38 -38 -39 -79 -5 -120 l25 -30 0 -302 0 -303 60 6 c58
7 60 6 60 -17 0 -21 -6 -25 -52 -31 -29 -4 -59 -12 -65 -17 -17 -13 -17 -79 0
-102 15 -20 29 -22 122 -12 175 18 251 29 263 38 17 15 15 88 -4 109 -12 14
-26 16 -68 12 -52 -5 -53 -5 -59 24 -14 70 -20 183 -9 183 6 0 20 13 32 30
l21 30 -22 70 c-13 38 -21 71 -18 73 2 1 31 20 64 42 77 50 163 137 198 199
15 27 39 83 54 123 l26 74 47 -74 c83 -129 193 -215 336 -261 l52 -17 -4 -57
c-3 -31 -7 -65 -9 -75 -2 -12 9 -27 35 -45 22 -15 41 -32 44 -38 2 -6 7 -52
11 -101 l7 -90 -50 -7 c-66 -9 -86 -28 -77 -75 11 -59 20 -64 105 -58 168 14
282 30 296 44 16 16 11 90 -6 107 -9 9 -76 11 -112 4 -8 -2 -14 8 -16 25 -3
27 -2 27 52 27 39 0 56 4 56 13 0 7 -29 143 -64 302 -57 256 -63 292 -50 309
22 32 18 89 -9 114 -13 12 -27 22 -33 22 -15 0 -83 75 -123 137 -44 69 -99
117 -191 166 -81 44 -150 58 -267 56 -70 -1 -96 2 -114 15 -37 26 -77 20 -109
-15z m101 -40 c10 -20 7 -22 -29 -19 -13 1 -30 -4 -38 -10 -12 -10 -14 -8 -14
13 0 46 59 57 81 16z m-260 -20 c11 -11 19 -22 17 -24 -9 -7 -98 -11 -98 -4 0
12 38 49 50 49 6 0 19 -9 31 -21z m584 -15 c72 -29 164 -100 212 -162 38 -50
40 -57 16 -67 -12 -4 -24 1 -36 17 -102 128 -229 198 -359 198 -28 0 -57 22
-58 44 0 17 162 -5 225 -30z m-759 -4 c26 -10 26 -12 11 -28 -9 -9 -36 -22
-59 -29 -48 -14 -58 -7 -58 40 0 25 3 27 39 27 22 0 52 -5 67 -10z m489 -2
c31 -14 35 -62 6 -78 -28 -14 -30 -13 -29 18 1 15 -1 37 -6 50 -8 25 -6 26 29
10z m-152 -32 c-3 -13 0 -33 6 -45 10 -18 9 -21 -8 -21 -21 0 -51 25 -51 42 0
16 31 48 45 48 7 0 10 -9 8 -24z m-95 -32 c2 -28 -2 -45 -13 -54 -8 -7 -15
-18 -15 -25 0 -7 -12 -20 -26 -30 -21 -13 -31 -15 -50 -6 -34 15 -32 45 3 38
20 -4 34 2 56 24 28 29 29 35 9 88 -3 9 1 12 14 9 14 -2 20 -13 22 -44z m178
7 c-11 -18 -36 -13 -36 7 0 10 3 22 7 26 10 10 37 -20 29 -33z m-334 -11 c-2
-17 1 -37 8 -45 10 -12 9 -15 -8 -15 -22 0 -52 24 -52 41 0 22 22 49 39 49 14
0 17 -6 13 -30z m85 4 c8 -21 -13 -42 -28 -27 -13 13 -5 43 11 43 6 0 13 -7
17 -16z m501 0 c28 -6 32 -11 37 -53 3 -25 15 -77 26 -116 20 -64 28 -77 101
-147 43 -43 85 -78 92 -78 7 0 23 -11 35 -24 29 -31 21 -80 -13 -71 -56 17
-132 62 -184 110 -89 83 -134 179 -148 317 -7 74 -7 74 54 62z m-95 -76 c10
-139 76 -275 170 -352 51 -42 170 -106 197 -106 23 0 32 -13 24 -34 -8 -21
-38 -14 -129 29 -162 75 -275 231 -305 422 -9 55 -8 67 7 88 10 13 21 25 24
25 3 0 9 -33 12 -72z m-575 17 c11 -24 11 -25 -28 -25 -32 0 -40 -4 -40 -19 0
-14 10 -20 40 -25 46 -7 54 -30 16 -47 -29 -14 -79 8 -120 50 l-27 29 33 20
c76 47 110 52 126 17z m442 -20 c-18 -21 -57 -18 -70 4 -15 29 -13 34 13 28
12 -3 31 -2 42 3 24 9 33 -13 15 -35z m379 5 c28 -22 66 -64 86 -92 l35 -53
-30 -23 c-17 -13 -30 -30 -30 -38 0 -44 -71 36 -99 111 -24 65 -36 135 -23
135 6 0 33 -18 61 -40z m-494 -20 c17 -19 17 -19 -11 -18 -16 1 -37 -2 -46 -6
-14 -6 -18 -3 -18 11 0 11 3 23 7 26 13 14 50 7 68 -13z m130 -247 c-44 -132
-136 -248 -244 -307 -49 -26 -50 -26 -56 -5 -4 11 -5 22 -3 23 1 1 24 14 49
29 100 57 194 189 221 309 6 29 18 62 25 73 7 11 13 36 13 56 0 70 15 50 18
-25 2 -60 -3 -91 -23 -153z m-305 160 c0 -3 -12 -3 -27 0 -15 3 -36 1 -46 -5
-25 -13 -33 -3 -19 27 l12 25 40 -21 c22 -12 40 -23 40 -26z m264 26 c13 -12
-10 -59 -28 -59 -9 0 -15 14 -18 40 -3 36 -2 39 17 34 11 -4 24 -10 29 -15z
m-176 -11 c-1 -13 2 -33 6 -45 9 -28 -9 -31 -36 -6 -21 19 -23 44 -6 61 19 19
38 14 36 -10z m88 1 c3 -6 0 -17 -7 -25 -18 -17 -44 -2 -36 20 7 18 33 21 43
5z m732 -41 c21 -21 14 -39 -12 -32 -13 3 -34 1 -45 -6 -24 -12 -28 -1 -11 31
12 21 50 25 68 7z m-1022 -33 c-5 -15 -46 -21 -46 -7 0 13 14 29 30 34 17 6
24 -6 16 -27z m92 -2 c5 -17 -26 -29 -40 -15 -6 6 -7 15 -3 22 9 14 37 9 43
-7z m213 -36 c-17 -18 -24 -19 -46 -9 -34 16 -35 51 -1 45 13 -3 32 0 43 5 27
16 30 -15 4 -41z m-143 5 c2 -7 -3 -12 -12 -12 -9 0 -16 7 -16 16 0 17 22 14
28 -4z m942 -1 c14 -27 13 -37 -6 -55 -25 -26 -41 -20 -36 14 2 17 -1 37 -8
45 -10 13 -8 15 13 15 16 0 31 -8 37 -19z m-172 -18 c-1 -16 1 -38 6 -50 9
-28 -4 -30 -34 -5 -18 14 -21 25 -17 45 4 14 15 28 25 30 9 3 18 5 19 6 1 0 1
-11 1 -26z m82 -12 c0 -11 -4 -22 -9 -25 -12 -8 -34 21 -26 34 11 17 35 11 35
-9z m-990 -20 c15 -28 13 -32 -14 -25 -13 3 -34 1 -45 -6 -18 -9 -21 -8 -21 8
0 41 60 59 80 23z m100 11 c0 -14 -11 -21 -26 -15 -8 3 -11 9 -8 14 7 11 34
12 34 1z m165 -20 l44 5 -28 -56 c-32 -62 -99 -136 -162 -178 -34 -22 -42 -24
-50 -12 -18 29 -10 64 23 90 27 22 32 35 39 88 8 75 29 98 66 74 16 -11 38
-14 68 -11z m756 -60 c-20 -38 -69 -33 -84 10 -5 14 -1 16 27 11 21 -3 36 -1
41 7 13 21 28 -5 16 -28z m-947 12 c20 -19 20 -24 0 -52 -23 -33 -45 -29 -38
8 4 18 1 36 -6 45 -10 13 -9 15 8 15 11 0 28 -7 36 -16z m-168 -26 c0 -18 2
-40 4 -48 6 -18 -31 -15 -42 3 -14 21 -8 56 10 66 26 16 29 14 28 -21z m84 -7
c0 -11 -4 -22 -9 -25 -12 -8 -34 21 -26 34 11 17 35 11 35 -9z m1083 -38 c3
-16 16 -71 27 -123 11 -52 25 -115 30 -140 6 -25 18 -82 29 -128 15 -64 16
-84 7 -88 -19 -7 -64 13 -74 33 -14 25 -57 434 -49 456 10 25 24 21 30 -10z
m-1063 -58 c-18 -21 -57 -18 -70 4 -15 29 -13 32 14 25 14 -3 33 -1 43 5 22
12 31 -12 13 -34z m984 8 c3 -21 10 -87 16 -148 6 -60 13 -121 16 -134 5 -22
3 -23 -27 -17 -65 13 -67 19 -52 173 6 76 12 144 13 151 0 6 6 12 14 12 9 0
16 -15 20 -37z m-1064 -58 c6 -8 23 -112 36 -232 24 -213 24 -218 6 -243 -26
-34 -62 -39 -62 -8 -5 240 -4 498 1 498 4 0 12 -7 19 -15z m135 -157 l46 -141
-22 -23 c-21 -23 -56 -37 -63 -26 -2 4 -7 36 -10 72 -4 36 -9 79 -11 95 -16
129 -16 165 -1 165 11 0 28 -41 61 -142z m971 -165 c4 -16 13 -37 20 -48 19
-27 18 -101 -1 -108 -20 -8 -22 -2 -30 78 -4 39 -9 78 -11 88 -3 9 -1 17 5 17
6 0 14 -12 17 -27z m-972 -190 c7 -69 6 -73 -13 -73 -26 0 -35 41 -25 117 12
104 25 90 38 -44z m1156 -16 c0 -13 -6 -24 -12 -24 -31 0 -220 -20 -275 -29
-29 -4 -33 -2 -33 19 0 23 4 24 138 39 193 21 182 22 182 -5z m-1002 -109 c-3
-21 -11 -24 -113 -35 -60 -6 -131 -14 -157 -18 -46 -5 -48 -5 -48 20 0 20 5
25 28 26 15 1 36 3 47 4 11 2 58 6 105 10 47 4 87 9 89 11 2 2 15 4 28 4 20 0
24 -5 21 -22z"/>
<path d="M6395 3721 c-8 -85 3 -203 19 -198 7 2 12 49 14 135 2 109 0 132 -12
132 -10 0 -16 -19 -21 -69z"/>
<path d="M6166 3742 c-12 -20 83 -252 103 -252 20 0 12 37 -29 136 -41 100
-63 134 -74 116z"/>
<path d="M6612 3673 c-36 -78 -62 -149 -62 -169 0 -50 50 30 96 153 28 73 29
83 10 83 -7 0 -27 -30 -44 -67z"/>
<path d="M5956 3602 c-6 -11 100 -129 149 -166 26 -20 40 -25 47 -18 8 8 -16
38 -80 101 -87 88 -105 100 -116 83z"/>
<path d="M6758 3522 c-85 -85 -103 -112 -75 -112 18 0 187 169 187 187 0 28
-27 10 -112 -75z"/>
<path d="M6407 3427 c-10 -26 -8 -139 2 -156 13 -21 24 85 14 134 -7 31 -11
36 -16 22z"/>
<path d="M6305 3398 c14 -51 58 -148 67 -148 12 0 3 30 -32 108 -29 62 -47 83
-35 40z"/>
<path d="M6490 3358 c-37 -82 -46 -113 -30 -103 21 13 81 165 65 165 -3 0 -19
-28 -35 -62z"/>
<path d="M4023 3396 c-68 -22 -128 -62 -171 -114 -33 -39 -50 -50 -94 -61 -78
-20 -216 -82 -300 -134 -225 -140 -411 -372 -498 -621 -36 -105 -264 -1210
-255 -1242 9 -40 240 -145 380 -174 l59 -12 -29 -21 c-56 -38 -140 -133 -172
-194 -55 -103 -63 -152 -63 -405 0 -214 1 -228 19 -238 13 -7 410 -10 1215
-10 l1196 0 16 25 c14 22 16 52 11 242 -3 149 -9 234 -19 268 -35 119 -117
237 -208 300 l-43 29 89 22 c163 39 360 129 370 169 5 24 -245 1115 -282 1227
-116 351 -408 641 -763 757 -54 18 -73 30 -118 80 -69 76 -136 110 -229 116
-44 3 -85 0 -111 -9z m204 -110 c69 -36 123 -123 123 -198 0 -39 -1 -40 -27
-33 -133 33 -260 33 -422 -1 l-34 -7 6 49 c13 114 102 205 212 216 41 4 109
-8 142 -26z m-447 -214 c0 -57 -1 -59 -37 -76 -107 -51 -237 -161 -308 -260
-90 -127 -139 -253 -157 -406 -8 -72 -16 -101 -32 -118 -23 -26 -24 -42 -11
-248 6 -104 10 -120 31 -141 20 -20 33 -23 96 -23 l74 0 17 -47 c45 -122 180
-283 291 -348 l46 -27 0 -78 0 -78 -52 -13 c-29 -6 -114 -29 -188 -51 -118
-33 -148 -38 -240 -38 -65 0 -140 8 -196 19 -96 21 -253 79 -292 109 l-24 18
107 530 c59 291 120 568 136 616 89 270 277 496 525 630 68 37 184 86 207 87
4 1 7 -25 7 -57z m825 -17 c253 -125 440 -335 542 -605 18 -48 283 -1157 283
-1185 0 -11 -142 -75 -215 -98 -107 -33 -211 -50 -320 -51 -79 -1 -111 5 -260
47 -234 66 -213 54 -212 128 l2 62 70 42 c137 84 245 206 300 340 l24 60 75 5
c115 8 118 13 130 203 5 85 6 166 2 181 -4 17 -19 32 -40 42 -33 16 -33 18
-39 93 -20 269 -197 535 -437 660 l-65 34 0 54 c0 52 1 54 25 48 14 -3 75 -30
135 -60z m-353 -79 c314 -61 554 -313 600 -630 9 -65 9 -89 0 -98 -13 -13
-392 -25 -436 -14 -14 3 -26 13 -26 20 0 22 -31 28 -51 10 -17 -15 -23 -15
-86 0 -158 40 -301 120 -431 241 -68 64 -78 69 -126 73 -61 5 -106 -14 -133
-55 -10 -14 -34 -80 -53 -147 l-36 -121 -54 0 -55 0 3 50 c19 290 232 556 520
650 112 36 244 44 364 21z m-484 -547 c158 -145 332 -232 550 -273 44 -8 95
-24 113 -34 58 -33 86 -35 109 -10 17 21 30 24 120 26 l100 4 0 -100 c0 -311
-187 -561 -477 -636 -77 -20 -231 -21 -308 -1 -218 56 -401 236 -461 455 -8
30 -17 110 -21 178 -6 120 -6 122 15 122 31 0 46 30 86 174 20 71 41 135 47
142 24 29 60 15 127 -47z m-368 -363 c0 -46 3 -104 6 -130 l7 -46 -40 0 -40 0
-6 83 c-4 45 -7 103 -7 130 l0 47 40 0 40 0 0 -84z m1535 -33 c-4 -65 -8 -124
-10 -130 -3 -8 -21 -13 -42 -13 l-38 0 3 117 c2 65 5 124 7 131 3 7 21 12 45
12 l41 0 -6 -117z m-887 -732 c72 -9 188 -2 255 14 26 7 27 6 27 -39 l0 -46
-225 0 -225 0 0 54 0 54 46 -14 c25 -7 80 -18 122 -23z m482 -200 c58 -17 180
-51 271 -74 217 -56 296 -103 369 -218 59 -91 70 -148 70 -360 l0 -189 -135 0
-135 0 0 80 c0 43 -5 103 -11 132 -44 206 -231 337 -439 308 -146 -20 -254
-69 -353 -160 l-62 -58 -60 57 c-167 156 -421 209 -588 124 -142 -71 -217
-215 -217 -415 l0 -68 -136 0 -136 0 4 208 3 207 36 75 c79 164 151 212 416
281 104 27 235 62 293 78 l105 30 300 -3 300 -3 105 -32z m-769 -427 c103 -31
170 -73 257 -160 45 -46 87 -84 93 -84 6 0 20 12 32 26 99 120 168 171 286
211 74 25 180 30 241 12 66 -20 132 -78 168 -150 29 -56 34 -78 39 -162 l6
-97 -773 0 -772 0 4 108 c5 121 20 164 85 228 79 80 207 106 334 68z"/>
<path d="M3864 2268 c-6 -7 -16 -26 -24 -41 -15 -30 -64 -64 -108 -76 -30 -8
-43 -45 -18 -54 65 -25 222 109 189 162 -13 21 -28 24 -39 9z"/>
<path d="M3822 2078 c-7 -7 -12 -43 -12 -90 0 -74 1 -79 25 -90 21 -9 28 -8
45 7 16 15 20 31 20 86 0 48 -5 72 -16 83 -18 19 -45 21 -62 4z"/>
<path d="M4392 2078 c-7 -7 -12 -43 -12 -90 0 -74 1 -79 25 -90 21 -9 28 -8
45 7 16 15 20 31 20 86 0 48 -5 72 -16 83 -18 19 -45 21 -62 4z"/>
<path d="M4023 1650 c-24 -10 -55 -31 -69 -45 -25 -25 -25 -28 -10 -43 13 -14
20 -14 34 -4 80 56 162 68 232 32 21 -11 41 -24 45 -30 10 -16 42 -12 49 6 9
23 -20 53 -79 80 -63 30 -143 31 -202 4z"/>
<path d="M5827 3403 c-15 -14 -3 -22 87 -62 104 -45 156 -60 156 -42 0 13 -79
54 -167 87 -72 27 -67 26 -76 17z"/>
<path d="M6872 3361 c-100 -42 -128 -59 -114 -73 15 -15 252 80 252 101 0 20
-44 11 -138 -28z"/>
<path d="M6210 3349 c0 -14 120 -132 127 -125 8 8 -52 80 -92 110 -19 15 -35
22 -35 15z"/>
<path d="M6549 3301 c-35 -33 -59 -64 -55 -68 3 -4 34 21 68 55 34 34 59 64
56 68 -4 3 -35 -21 -69 -55z"/>
<path d="M6150 3260 c0 -8 101 -55 143 -65 47 -12 30 5 -35 34 -72 32 -108 43
-108 31z"/>
<path d="M6624 3251 c-91 -33 -153 -73 -86 -56 43 10 142 57 142 66 0 5 -1 9
-2 8 -2 0 -26 -9 -54 -18z"/>
<path d="M5775 3159 c-13 -19 6 -24 113 -27 106 -4 170 8 157 28 -9 14 -262
13 -270 -1z"/>
<path d="M6785 3159 c-13 -19 6 -24 113 -27 106 -4 170 8 157 28 -9 14 -262
13 -270 -1z"/>
<path d="M6125 3150 c3 -5 44 -10 90 -10 46 0 87 5 90 10 4 6 -28 10 -90 10
-62 0 -94 -4 -90 -10z"/>
<path d="M6525 3150 c3 -5 44 -10 91 -10 49 0 84 4 84 10 0 6 -37 10 -91 10
-57 0 -88 -4 -84 -10z"/>
<path d="M6205 3076 c-39 -19 -62 -35 -53 -35 22 -1 146 48 154 60 11 19 -34
8 -101 -25z"/>
<path d="M6577 3074 c40 -19 80 -34 90 -31 22 5 -84 56 -131 63 -22 3 -11 -6
41 -32z"/>
<path d="M6269 3021 c-35 -33 -59 -64 -55 -68 3 -4 34 21 68 55 34 34 59 64
56 68 -4 3 -35 -21 -69 -55z"/>
<path d="M6490 3071 c0 -14 120 -134 127 -127 9 9 -42 70 -87 106 -22 17 -40
27 -40 21z"/>
<path d="M6336 2995 c-15 -30 -29 -69 -32 -87 l-6 -33 19 30 c27 41 65 145 54
145 -5 0 -21 -25 -35 -55z"/>
<path d="M6450 3048 c0 -14 44 -124 58 -146 25 -38 24 -18 -2 53 -21 57 -56
115 -56 93z"/>
<path d="M6407 3027 c-9 -24 -8 -127 2 -152 6 -15 10 -4 15 40 7 67 -5 143
-17 112z"/>
<path d="M5985 2996 c-113 -43 -165 -68 -165 -82 0 -18 6 -18 71 5 100 35 179
73 179 87 0 19 -14 17 -85 -10z"/>
<path d="M6755 3009 c-9 -13 -10 -11 50 -42 82 -41 194 -78 201 -66 3 6 4 12
3 13 -18 16 -225 106 -244 106 -2 0 -7 -5 -10 -11z"/>
<path d="M6050 2815 c-49 -49 -90 -97 -90 -107 0 -26 8 -23 61 27 100 93 143
145 131 157 -8 8 -34 -11 -102 -77z"/>
<path d="M6675 2890 c-9 -14 38 -72 114 -140 59 -54 81 -65 81 -40 0 13 -105
124 -150 160 -23 18 -41 26 -45 20z"/>
<path d="M6222 2743 c-36 -78 -62 -149 -62 -169 0 -50 50 30 96 153 28 73 29
83 10 83 -7 0 -27 -30 -44 -67z"/>
<path d="M6548 2804 c-16 -15 85 -248 104 -241 18 6 13 27 -35 141 -39 93 -55
115 -69 100z"/>
<path d="M6395 2711 c-8 -85 3 -203 19 -198 7 2 12 49 14 135 2 109 0 132 -12
132 -10 0 -16 -19 -21 -69z"/>
<path d="M6875 1533 c-72 -52 -211 -197 -278 -290 -31 -44 -80 -124 -108 -177
-28 -53 -59 -101 -69 -106 -27 -15 -67 -12 -106 6 -19 9 -43 14 -53 11 -16 -4
-21 2 -26 24 -8 35 -49 69 -84 69 -63 0 -120 -68 -93 -111 10 -16 7 -20 -26
-29 -21 -5 -53 -13 -70 -16 -38 -8 -82 -56 -82 -90 0 -40 48 -82 128 -109 92
-32 252 -63 364 -72 148 -10 190 16 262 167 25 54 54 93 100 139 36 36 69 62
72 58 4 -4 -4 -89 -19 -190 -20 -141 -23 -185 -14 -194 7 -6 33 -15 59 -18 57
-9 63 0 72 100 21 212 50 306 137 454 26 43 33 67 37 126 4 67 2 80 -26 139
-36 77 -89 146 -111 146 -9 0 -38 -17 -66 -37z m75 -71 c-131 -88 -282 -267
-400 -476 -55 -97 -87 -120 -169 -119 -57 1 -171 37 -171 54 0 12 62 12 96 -1
44 -17 109 -14 143 6 22 13 44 45 78 113 76 152 224 336 357 443 l49 39 21
-21 21 -22 -25 -16z m73 -88 c25 -71 15 -133 -34 -216 -69 -113 -95 -191 -113
-333 -23 -174 -23 -175 -47 -175 -17 0 -19 5 -14 33 19 115 54 391 49 398 -11
19 -37 7 -105 -46 -82 -67 -135 -134 -183 -235 -53 -112 -90 -127 -262 -104
-179 23 -340 66 -372 98 -20 20 -8 60 21 73 13 6 57 17 98 24 72 12 76 11 124
-13 67 -34 149 -58 200 -58 93 0 152 41 206 144 56 106 144 229 225 316 81 86
161 152 179 147 6 -2 18 -26 28 -53z m-843 -364 c11 -7 12 -14 5 -26 -27 -43
-95 -31 -81 14 8 24 48 30 76 12z"/>
</g>
</svg>
