<?xml version="1.0" standalone="no"?>
<!DOCTYPE svg PUBLIC "-//W3C//DTD SVG 20010904//EN"
 "http://www.w3.org/TR/2001/REC-SVG-20010904/DTD/svg10.dtd">
<svg version="1.0" xmlns="http://www.w3.org/2000/svg"
 width="800.000000pt" height="600.000000pt" viewBox="0 0 800.000000 600.000000"
 preserveAspectRatio="xMidYMid meet">

<g transform="translate(0.000000,600.000000) scale(0.100000,-0.100000)"
fill="#000000" stroke="none">
<path d="M4378 5272 c-29 -19 -55 -36 -57 -38 -2 -2 3 -38 13 -80 9 -42 15
-79 12 -81 -2 -2 -31 3 -64 11 -79 21 -233 21 -303 0 -139 -41 -285 -149 -359
-264 -81 -127 -108 -307 -71 -466 74 -311 392 -515 701 -450 95 20 220 81 287
141 247 219 269 614 48 853 -30 33 -55 62 -55 65 0 3 33 16 73 29 39 12 75 26
78 30 3 5 5 38 5 74 l-1 66 -127 73 -126 73 -54 -36z m156 -95 c82 -48 115
-77 87 -77 -17 0 -211 113 -211 122 0 19 41 4 124 -45z m-84 -71 c0 -16 -27
-52 -34 -46 -3 3 -8 25 -12 49 l-7 43 27 -17 c14 -9 26 -23 26 -29z m98 -44
l22 -17 -45 -16 c-48 -18 -54 -12 -29 26 19 29 22 30 52 7z m-290 -32 c90 -21
192 -79 261 -149 80 -80 125 -166 147 -276 37 -187 -16 -357 -153 -497 -91
-92 -219 -147 -358 -153 -153 -8 -288 46 -401 159 -75 75 -107 128 -144 240
-44 134 -14 317 73 449 68 102 206 199 322 226 54 12 200 13 253 1z"/>
<path d="M4016 4999 c-78 -18 -183 -77 -243 -137 -207 -205 -201 -545 14 -742
249 -228 642 -160 801 138 182 342 -70 756 -458 751 -41 -1 -93 -5 -114 -10z
m235 -63 c160 -49 282 -169 321 -316 67 -256 -80 -499 -342 -566 -187 -48
-408 58 -499 239 -127 253 -3 544 274 641 53 18 188 19 246 2z"/>
<path d="M4023 3396 c-68 -22 -128 -62 -171 -114 -33 -39 -50 -50 -94 -61 -78
-20 -216 -82 -300 -134 -225 -140 -411 -372 -498 -621 -36 -105 -264 -1210
-255 -1242 9 -40 240 -145 380 -174 l59 -12 -29 -21 c-56 -38 -140 -133 -172
-194 -55 -103 -63 -152 -63 -405 0 -214 1 -228 19 -238 13 -7 410 -10 1215
-10 l1196 0 16 25 c14 22 16 52 11 242 -3 149 -9 234 -19 268 -35 119 -117
237 -208 300 l-43 29 89 22 c163 39 360 129 370 169 5 24 -245 1115 -282 1227
-116 351 -408 641 -763 757 -54 18 -73 30 -118 80 -69 76 -136 110 -229 116
-44 3 -85 0 -111 -9z m204 -110 c69 -36 123 -123 123 -198 0 -39 -1 -40 -27
-33 -133 33 -260 33 -422 -1 l-34 -7 6 49 c13 114 102 205 212 216 41 4 109
-8 142 -26z m-447 -214 c0 -57 -1 -59 -37 -76 -107 -51 -237 -161 -308 -260
-90 -127 -139 -253 -157 -406 -8 -72 -16 -101 -32 -118 -23 -26 -24 -42 -11
-248 6 -104 10 -120 31 -141 20 -20 33 -23 96 -23 l74 0 17 -47 c45 -122 180
-283 291 -348 l46 -27 0 -78 0 -78 -52 -13 c-29 -6 -114 -29 -188 -51 -118
-33 -148 -38 -240 -38 -65 0 -140 8 -196 19 -96 21 -253 79 -292 109 l-24 18
107 530 c59 291 120 568 136 616 89 270 277 496 525 630 68 37 184 86 207 87
4 1 7 -25 7 -57z m825 -17 c253 -125 440 -335 542 -605 18 -48 283 -1157 283
-1185 0 -11 -142 -75 -215 -98 -107 -33 -211 -50 -320 -51 -79 -1 -111 5 -260
47 -236 67 -217 55 -213 128 l3 62 70 42 c137 84 245 206 300 340 l24 60 75 5
c115 8 118 13 130 203 5 85 6 166 2 181 -4 17 -19 32 -40 42 -33 16 -33 18
-39 93 -20 269 -197 535 -437 660 l-65 34 0 54 c0 52 1 54 25 48 14 -3 75 -30
135 -60z m-353 -79 c314 -61 554 -313 600 -630 10 -69 9 -89 0 -98 -10 -10
-74 -13 -250 -13 -213 0 -246 2 -325 22 -182 47 -320 122 -455 248 -68 64 -78
69 -126 73 -61 5 -106 -14 -133 -55 -10 -14 -34 -80 -53 -147 l-36 -121 -54 0
-55 0 3 50 c19 290 232 556 520 650 112 36 244 44 364 21z m-484 -547 c126
-115 272 -199 428 -244 48 -14 90 -27 92 -29 2 -3 -1 -13 -7 -24 -18 -33 -13
-104 9 -140 28 -46 76 -72 133 -72 92 0 152 62 151 156 -1 62 2 64 114 64 l72
0 0 -98 c0 -311 -187 -561 -477 -636 -77 -20 -231 -21 -308 -1 -176 45 -337
175 -412 335 -52 108 -62 151 -70 300 -6 118 -6 120 15 120 31 0 46 30 86 174
20 71 41 135 47 142 24 29 60 15 127 -47z m-368 -363 c0 -46 3 -104 6 -130 l7
-46 -40 0 -40 0 -6 83 c-4 45 -7 103 -7 130 l0 47 40 0 40 0 0 -84z m1535 -33
c-4 -65 -8 -124 -10 -130 -3 -8 -21 -13 -42 -13 l-38 0 3 117 c2 65 5 124 7
131 3 7 21 12 45 12 l41 0 -6 -117z m-459 71 c34 -51 -25 -121 -78 -93 -29 15
-38 28 -38 58 0 60 84 85 116 35z m-428 -803 c72 -9 188 -2 255 14 26 7 27 6
27 -39 l0 -46 -225 0 -225 0 0 54 0 54 46 -14 c25 -7 80 -18 122 -23z m482
-200 c58 -17 180 -51 271 -74 217 -56 296 -103 369 -218 59 -91 70 -148 70
-360 l0 -189 -135 0 -135 0 0 80 c0 43 -5 103 -11 132 -44 206 -231 337 -439
308 -146 -20 -254 -69 -353 -160 l-62 -58 -60 57 c-167 156 -421 209 -588 124
-142 -71 -217 -215 -217 -415 l0 -68 -136 0 -136 0 4 208 3 207 36 75 c79 164
151 212 416 281 104 27 235 62 293 78 l105 30 300 -3 300 -3 105 -32z m-769
-427 c103 -31 170 -73 257 -160 45 -46 87 -84 93 -84 6 0 20 12 32 26 99 120
168 171 286 211 74 25 180 30 241 12 66 -20 132 -78 168 -150 29 -56 34 -78
39 -162 l6 -97 -773 0 -772 0 4 108 c5 121 20 164 85 228 79 80 207 106 334
68z"/>
<path d="M3830 2213 c-31 -11 -81 -69 -91 -105 -15 -56 3 -108 51 -152 35 -32
46 -36 93 -36 93 0 157 61 157 150 0 86 -65 151 -150 149 -25 0 -52 -3 -60 -6z
m104 -99 c17 -16 21 -61 8 -80 -17 -26 -51 -35 -79 -22 -64 30 -48 118 22 118
18 0 41 -7 49 -16z"/>
<path d="M3876 1624 c-9 -8 -16 -22 -16 -29 0 -7 7 -21 16 -29 13 -14 53 -16
279 -16 226 0 266 2 279 16 9 8 16 22 16 29 0 7 -7 21 -16 29 -13 14 -53 16
-279 16 -226 0 -266 -2 -279 -16z"/>
<path d="M6495 1651 c-8 -85 3 -203 19 -198 7 2 12 49 14 135 2 109 0 132 -12
132 -10 0 -16 -19 -21 -69z"/>
<path d="M6266 1672 c-12 -20 83 -252 103 -252 20 0 12 37 -29 136 -41 100
-63 134 -74 116z"/>
<path d="M6712 1603 c-36 -78 -62 -149 -62 -169 0 -50 50 30 96 153 28 73 29
83 10 83 -7 0 -27 -30 -44 -67z"/>
<path d="M6056 1532 c-6 -11 100 -129 149 -166 26 -20 40 -25 47 -18 8 8 -16
38 -80 101 -87 88 -105 100 -116 83z"/>
<path d="M6858 1452 c-85 -85 -103 -112 -75 -112 18 0 187 169 187 187 0 28
-27 10 -112 -75z"/>
<path d="M6507 1357 c-10 -26 -8 -139 2 -156 13 -21 24 85 14 134 -7 31 -11
36 -16 22z"/>
<path d="M6405 1328 c14 -51 58 -148 67 -148 12 0 3 30 -32 108 -29 62 -47 83
-35 40z"/>
<path d="M6590 1288 c-37 -82 -46 -113 -30 -103 21 13 81 165 65 165 -3 0 -19
-28 -35 -62z"/>
<path d="M5927 1333 c-15 -14 -3 -22 87 -62 104 -45 156 -60 156 -42 0 13 -79
54 -167 87 -72 27 -67 26 -76 17z"/>
<path d="M6972 1291 c-100 -42 -128 -59 -114 -73 15 -15 252 80 252 101 0 20
-44 11 -138 -28z"/>
<path d="M6310 1279 c0 -14 120 -132 127 -125 8 8 -52 80 -92 110 -19 15 -35
22 -35 15z"/>
<path d="M6649 1231 c-35 -33 -59 -64 -55 -68 3 -4 34 21 68 55 34 34 59 64
56 68 -4 3 -35 -21 -69 -55z"/>
<path d="M6250 1190 c0 -8 101 -55 143 -65 47 -12 30 5 -35 34 -72 32 -108 43
-108 31z"/>
<path d="M6724 1181 c-91 -33 -153 -73 -86 -56 43 10 142 57 142 66 0 5 -1 9
-2 8 -2 0 -26 -9 -54 -18z"/>
<path d="M5875 1089 c-13 -19 6 -24 113 -27 106 -4 170 8 157 28 -9 14 -262
13 -270 -1z"/>
<path d="M6885 1089 c-13 -19 6 -24 113 -27 106 -4 170 8 157 28 -9 14 -262
13 -270 -1z"/>
<path d="M6225 1080 c3 -5 44 -10 90 -10 46 0 87 5 90 10 4 6 -28 10 -90 10
-62 0 -94 -4 -90 -10z"/>
<path d="M6625 1080 c3 -5 44 -10 91 -10 49 0 84 4 84 10 0 6 -37 10 -91 10
-57 0 -88 -4 -84 -10z"/>
<path d="M6305 1006 c-39 -19 -62 -35 -53 -35 22 -1 146 48 154 60 11 19 -34
8 -101 -25z"/>
<path d="M6677 1004 c40 -19 80 -34 90 -31 22 5 -84 56 -131 63 -22 3 -11 -6
41 -32z"/>
<path d="M6369 951 c-35 -33 -59 -64 -55 -68 3 -4 34 21 68 55 34 34 59 64 56
68 -4 3 -35 -21 -69 -55z"/>
<path d="M6590 1001 c0 -14 120 -134 127 -127 9 9 -42 70 -87 106 -22 17 -40
27 -40 21z"/>
<path d="M6436 925 c-15 -30 -29 -69 -32 -87 l-6 -33 19 30 c27 41 65 145 54
145 -5 0 -21 -25 -35 -55z"/>
<path d="M6550 978 c0 -14 44 -124 58 -146 25 -38 24 -18 -2 53 -21 57 -56
115 -56 93z"/>
<path d="M6507 957 c-9 -24 -8 -127 2 -152 6 -15 10 -4 15 40 7 67 -5 143 -17
112z"/>
<path d="M6085 926 c-113 -43 -165 -68 -165 -82 0 -18 6 -18 71 5 100 35 179
73 179 87 0 19 -14 17 -85 -10z"/>
<path d="M6855 939 c-9 -13 -10 -11 50 -42 82 -41 194 -78 201 -66 3 6 4 12 3
13 -18 16 -225 106 -244 106 -2 0 -7 -5 -10 -11z"/>
<path d="M6150 745 c-49 -49 -90 -97 -90 -107 0 -26 8 -23 61 27 100 93 143
145 131 157 -8 8 -34 -11 -102 -77z"/>
<path d="M6775 820 c-9 -14 38 -72 114 -140 59 -54 81 -65 81 -40 0 13 -105
124 -150 160 -23 18 -41 26 -45 20z"/>
<path d="M6322 673 c-36 -78 -62 -149 -62 -169 0 -50 50 30 96 153 28 73 29
83 10 83 -7 0 -27 -30 -44 -67z"/>
<path d="M6648 734 c-16 -15 85 -248 104 -241 18 6 13 27 -35 141 -39 93 -55
115 -69 100z"/>
<path d="M6495 641 c-8 -85 3 -203 19 -198 7 2 12 49 14 135 2 109 0 132 -12
132 -10 0 -16 -19 -21 -69z"/>
</g>
</svg>
