<?xml version="1.0" standalone="no"?>
<!DOCTYPE svg PUBLIC "-//W3C//DTD SVG 20010904//EN"
 "http://www.w3.org/TR/2001/REC-SVG-20010904/DTD/svg10.dtd">
<svg version="1.0" xmlns="http://www.w3.org/2000/svg"
 width="800.000000pt" height="600.000000pt" viewBox="0 0 800.000000 600.000000"
 preserveAspectRatio="xMidYMid meet">

<g transform="translate(0.000000,600.000000) scale(0.100000,-0.100000)"
fill="#000000" stroke="none">
<path d="M3574 4390 c-179 -63 -294 -224 -294 -410 0 -183 96 -366 275 -521
125 -109 383 -259 445 -259 41 0 183 72 313 159 183 123 314 273 374 428 35
92 43 237 18 312 -64 193 -221 311 -414 311 -92 0 -157 -19 -233 -66 l-58 -35
-59 36 c-32 20 -80 43 -106 51 -67 20 -198 17 -261 -6z m257 -137 c25 -11 69
-41 97 -67 29 -25 61 -46 72 -46 11 0 43 21 72 46 65 59 125 85 202 91 116 9
230 -57 282 -162 88 -182 -8 -415 -246 -594 -114 -87 -275 -181 -307 -181 -7
0 -45 16 -83 35 -394 199 -591 505 -475 741 68 139 242 201 386 137z"/>
<path d="M2893 3390 c-57 -12 -117 -44 -167 -90 -23 -21 -66 -48 -95 -60 -278
-109 -515 -372 -674 -745 -123 -287 -209 -650 -211 -886 -1 -117 1 -128 23
-161 34 -49 74 -74 180 -109 l93 -31 -35 -37 c-52 -54 -95 -128 -120 -206 -21
-68 -22 -85 -22 -486 0 -396 1 -418 19 -438 l19 -21 2163 0 c1929 0 2164 2
2178 15 8 9 18 31 21 49 4 18 5 217 2 442 -4 452 -5 455 -72 583 -46 88 -139
178 -227 220 -51 24 -258 88 -563 175 -32 9 -41 16 -43 37 -3 22 6 31 62 64
115 67 225 194 277 320 l22 52 54 6 c63 7 91 22 128 72 47 61 47 219 1 288
-20 29 -24 50 -29 158 -6 137 -24 207 -84 321 -62 118 -193 242 -317 298 -115
52 -190 62 -419 58 -198 -4 -217 -6 -294 -31 -156 -52 -312 -183 -386 -325
-61 -116 -78 -183 -84 -322 -4 -90 -10 -130 -20 -142 -26 -29 -42 -91 -43
-161 0 -137 67 -217 185 -217 28 0 33 -6 65 -77 56 -124 129 -208 253 -290 70
-46 81 -67 51 -97 -8 -9 -21 -16 -28 -16 -32 0 -497 -144 -554 -171 -73 -36
-172 -124 -208 -186 -14 -23 -29 -43 -32 -43 -4 0 -28 25 -55 55 l-47 54 82
26 c143 45 191 85 216 178 20 72 -23 380 -84 602 -140 509 -336 833 -622 1027
-73 49 -186 108 -209 108 -7 0 -36 21 -65 46 -88 79 -191 112 -285 94z m130
-144 c39 -16 82 -61 96 -99 l11 -27 -73 7 c-91 10 -124 10 -214 0 -67 -8 -71
-7 -66 11 8 32 63 92 97 107 41 18 109 18 149 1z m2349 -128 c91 -34 157 -78
225 -151 88 -95 128 -185 148 -341 5 -33 3 -46 -4 -41 -6 3 -11 13 -11 22 0
48 -64 67 -122 37 -88 -45 -228 -63 -348 -45 -41 7 -159 36 -262 66 -228 66
-328 81 -430 65 -40 -6 -80 -18 -90 -27 -10 -9 -26 -41 -34 -71 -9 -29 -18
-51 -21 -49 -10 10 18 161 39 210 66 157 193 278 341 326 91 29 94 30 307 27
181 -2 200 -4 262 -28z m-2732 -37 c0 -4 -28 -25 -63 -45 -138 -81 -256 -216
-317 -363 -34 -82 -60 -186 -60 -247 0 -28 -6 -43 -24 -57 -41 -32 -59 -97
-54 -193 4 -73 8 -89 32 -120 35 -47 74 -66 131 -66 35 0 47 -4 51 -17 40
-126 164 -280 278 -347 51 -30 66 -44 66 -62 0 -29 -8 -34 -105 -60 -44 -12
-145 -40 -225 -64 l-146 -43 -147 47 c-190 60 -192 62 -183 175 31 390 177
841 362 1118 77 113 199 238 298 302 75 49 106 61 106 42z m713 -32 c87 -52
237 -199 304 -299 145 -216 262 -513 327 -830 48 -237 58 -374 29 -408 -12
-13 -73 -38 -166 -68 l-148 -47 -77 22 c-392 111 -407 116 -410 142 -2 20 6
29 55 54 35 17 91 62 139 110 66 66 88 97 125 172 l44 93 46 0 c51 0 98 26
133 73 17 22 22 47 25 114 4 96 -14 160 -55 192 -17 14 -24 29 -24 55 0 78
-32 192 -82 295 -44 91 -62 116 -137 190 -47 48 -114 102 -148 121 -34 19 -63
41 -63 48 0 18 8 16 83 -29z m-258 -64 c146 -37 289 -138 371 -263 41 -61 88
-188 99 -264 l7 -48 -205 0 c-113 0 -230 5 -259 11 -77 15 -261 109 -353 179
-44 34 -93 68 -108 76 -61 32 -157 10 -193 -44 -10 -15 -30 -70 -45 -122 -24
-86 -29 -95 -52 -98 -25 -3 -26 -1 -21 35 22 155 77 267 184 374 80 81 173
135 280 163 73 19 221 20 295 1z m1710 -404 c44 -11 125 -34 180 -51 220 -68
376 -85 527 -56 40 8 81 18 92 22 17 7 18 0 14 -157 -4 -145 -7 -172 -30 -236
-68 -190 -236 -326 -436 -355 -105 -15 -199 2 -304 54 -145 73 -239 190 -279
349 -19 72 -21 102 -16 243 3 89 8 171 12 184 7 20 13 22 84 22 42 0 112 -9
156 -19z m-2179 -52 c117 -94 259 -175 374 -214 l65 -22 -30 -14 c-62 -30 -59
-113 8 -180 46 -46 92 -70 116 -61 37 13 100 66 120 101 25 46 27 88 5 119
l-16 23 99 -3 98 -3 -2 -95 c-2 -110 -25 -193 -77 -274 -207 -322 -659 -323
-868 -2 -49 76 -74 159 -83 275 l-8 92 35 32 c25 23 40 49 52 92 9 33 24 84
32 113 8 29 20 52 28 52 7 0 31 -14 52 -31z m1794 -228 c0 -81 -6 -96 -34 -85
-13 5 -16 22 -16 78 0 78 3 86 32 86 16 0 18 -9 18 -79z m1378 0 c2 -53 -1
-77 -10 -82 -33 -21 -38 -10 -38 77 0 83 1 85 23 82 20 -3 22 -9 25 -77z
m-3498 -102 c0 -71 -2 -80 -17 -77 -15 3 -19 16 -21 72 -3 66 4 85 31 86 4 0
7 -36 7 -81z m855 72 c10 -17 -9 -20 -30 -5 -18 14 -18 14 2 14 12 0 24 -4 28
-9z m479 -7 c19 -19 22 -114 4 -132 -29 -29 -38 -13 -38 61 0 88 6 100 34 71z
m1497 -651 l95 6 13 -35 c7 -20 11 -37 9 -40 -3 -2 -39 -9 -82 -16 -60 -9 -96
-9 -159 0 -44 6 -84 15 -89 20 -4 4 -3 24 3 43 l11 36 52 -10 c28 -5 94 -7
147 -4z m-2047 -106 c9 -42 65 -93 117 -106 124 -31 469 -136 503 -153 60 -30
129 -101 162 -165 l29 -58 3 -388 3 -387 -91 0 -90 0 0 333 0 333 -29 45 c-36
57 -101 111 -175 145 -170 78 -356 46 -497 -83 -31 -29 -62 -53 -69 -53 -7 0
-39 24 -71 54 -142 132 -328 160 -505 77 -79 -37 -168 -123 -183 -178 -6 -21
-11 -70 -11 -109 0 -81 23 -124 66 -124 47 0 64 32 64 117 l0 76 43 42 c128
122 308 120 440 -4 113 -107 200 -108 307 -6 135 130 322 133 453 7 l37 -36 0
-318 0 -318 -640 0 -640 0 0 112 c0 90 -3 115 -17 130 -21 24 -68 23 -93 -2
-18 -18 -20 -33 -20 -130 l0 -110 -90 0 -91 0 3 383 3 382 29 62 c31 68 98
138 162 171 33 16 357 115 499 151 48 13 102 64 111 106 l5 30 134 0 133 0 6
-28z m1855 -102 c41 -9 77 -17 79 -19 4 -4 -88 -92 -118 -113 -17 -12 -20 -7
-44 65 -31 91 -31 95 -8 88 9 -3 50 -12 91 -21z m401 18 c0 -5 -12 -43 -26
-85 -19 -58 -29 -76 -39 -71 -20 12 -127 115 -123 119 3 3 152 38 181 43 4 0
7 -2 7 -6z m-760 -20 c0 -3 -21 -42 -46 -85 -74 -129 -83 -101 131 -433 103
-159 230 -356 282 -437 54 -84 103 -150 114 -153 51 -16 60 -5 327 409 144
222 271 420 283 440 28 48 23 72 -40 180 -27 47 -44 86 -38 86 28 0 287 -85
330 -108 64 -34 142 -119 175 -189 l27 -58 3 -402 3 -403 -125 0 -126 0 0 324
c0 312 -1 324 -21 350 -25 32 -68 35 -95 5 -18 -20 -19 -43 -22 -350 l-3 -329
-659 0 -660 0 0 104 c0 89 -3 107 -21 130 -13 17 -30 26 -49 26 -19 0 -36 -9
-49 -26 -18 -23 -21 -41 -21 -130 l0 -104 -120 0 -121 0 3 403 3 402 27 57
c32 68 105 149 167 186 25 14 106 45 180 68 140 44 161 49 161 37z m153 -115
c9 -35 46 -157 81 -273 36 -116 58 -201 50 -190 -8 11 -67 99 -129 196 l-115
177 43 76 c23 42 44 76 47 76 3 0 14 -28 23 -62z m774 -14 l42 -75 -116 -182
c-64 -100 -122 -188 -129 -196 -6 -7 25 109 69 258 45 149 84 271 87 271 3 0
24 -34 47 -76z m-372 -93 c-5 -17 -14 -21 -50 -21 -58 0 -70 28 -29 71 l28 29
29 -29 c22 -21 27 -34 22 -50z m-14 -291 l17 -125 -26 -90 -26 -89 -27 86 -27
87 15 118 c17 141 18 145 40 141 14 -3 21 -26 34 -128z"/>
<path d="M4818 2414 c-30 -16 -58 -61 -58 -94 0 -32 18 -60 39 -60 24 0 38 18
43 55 3 27 7 30 38 30 30 0 35 -4 40 -31 9 -41 18 -54 39 -54 27 0 41 21 41
60 0 85 -102 138 -182 94z"/>
<path d="M5244 2421 c-75 -32 -89 -180 -15 -156 20 6 38 41 27 52 -10 11 16
33 38 33 28 0 46 -18 46 -46 0 -28 24 -47 49 -39 43 13 38 85 -9 130 -31 30
-98 42 -136 26z"/>
<path d="M4768 2079 c-41 -23 -11 -74 82 -141 143 -102 354 -94 503 20 58 44
80 76 72 102 -11 34 -50 24 -102 -25 -62 -60 -136 -88 -233 -89 -96 0 -168 27
-244 94 -32 28 -58 50 -59 50 -1 0 -10 -5 -19 -11z"/>
<path d="M2642 2274 c-70 -49 -33 -157 74 -220 l44 -26 44 26 c85 50 130 128
106 186 -20 48 -98 63 -130 24 -10 -11 -18 -10 -48 6 -44 24 -61 25 -90 4z"/>
<path d="M2798 1944 c-30 -9 -49 -21 -53 -34 -21 -65 63 -168 153 -190 96 -22
191 16 243 98 48 76 34 111 -51 131 -65 15 -237 12 -292 -5z m310 -43 l23 -12
-23 -41 c-28 -51 -62 -77 -117 -89 -76 -17 -161 23 -196 92 -22 41 -19 47 28
58 56 13 256 8 285 -8z"/>
<path d="M4301 924 c-17 -22 -21 -41 -21 -106 0 -70 3 -82 25 -103 29 -30 55
-32 86 -6 21 17 24 29 27 103 3 73 1 86 -18 111 -29 36 -71 37 -99 1z"/>
</g>
</svg>
