<?xml version="1.0" standalone="no"?>
<!DOCTYPE svg PUBLIC "-//W3C//DTD SVG 20010904//EN"
 "http://www.w3.org/TR/2001/REC-SVG-20010904/DTD/svg10.dtd">
<svg version="1.0" xmlns="http://www.w3.org/2000/svg"
 width="800.000000pt" height="600.000000pt" viewBox="0 0 800.000000 600.000000"
 preserveAspectRatio="xMidYMid meet">

<g transform="translate(0.000000,600.000000) scale(0.100000,-0.100000)"
fill="#000000" stroke="none">
<path d="M4115 5091 c-8 -85 3 -203 19 -198 7 2 12 49 14 135 2 109 0 132 -12
132 -10 0 -16 -19 -21 -69z"/>
<path d="M3886 5112 c-12 -20 83 -252 103 -252 20 0 12 37 -29 136 -41 100
-63 134 -74 116z"/>
<path d="M4332 5043 c-36 -78 -62 -149 -62 -169 0 -50 50 30 96 153 28 73 29
83 10 83 -7 0 -27 -30 -44 -67z"/>
<path d="M3676 4972 c-6 -11 100 -129 149 -166 26 -20 40 -25 47 -18 8 8 -16
38 -80 101 -87 88 -105 100 -116 83z"/>
<path d="M4478 4892 c-48 -49 -88 -94 -88 -100 0 -28 32 -7 113 75 82 81 103
113 75 113 -6 0 -51 -40 -100 -88z"/>
<path d="M4127 4797 c-10 -26 -8 -139 2 -156 13 -21 24 85 14 134 -7 31 -11
36 -16 22z"/>
<path d="M4025 4768 c14 -51 58 -148 67 -148 12 0 3 30 -32 108 -29 62 -47 83
-35 40z"/>
<path d="M4210 4728 c-37 -82 -46 -113 -30 -103 21 13 81 165 65 165 -3 0 -19
-28 -35 -62z"/>
<path d="M3547 4773 c-15 -14 -3 -22 87 -62 104 -45 156 -60 156 -42 0 13 -79
54 -167 87 -72 27 -67 26 -76 17z"/>
<path d="M4592 4731 c-100 -42 -128 -59 -114 -73 15 -15 252 80 252 101 0 20
-44 11 -138 -28z"/>
<path d="M3930 4719 c0 -14 120 -132 127 -125 8 8 -52 80 -92 110 -19 15 -35
22 -35 15z"/>
<path d="M4269 4671 c-35 -33 -59 -64 -55 -68 3 -4 34 21 68 55 34 34 59 64
56 68 -4 3 -35 -21 -69 -55z"/>
<path d="M3870 4630 c0 -8 101 -55 143 -65 47 -12 30 5 -35 34 -72 32 -108 43
-108 31z"/>
<path d="M4344 4621 c-91 -33 -153 -73 -86 -56 43 10 142 57 142 66 0 5 -1 9
-2 8 -2 0 -26 -9 -54 -18z"/>
<path d="M3495 4529 c-13 -19 6 -24 113 -27 106 -4 170 8 157 28 -9 14 -262
13 -270 -1z"/>
<path d="M4505 4529 c-13 -19 6 -24 113 -27 106 -4 170 8 157 28 -9 14 -262
13 -270 -1z"/>
<path d="M3845 4520 c3 -5 44 -10 90 -10 46 0 87 5 90 10 4 6 -28 10 -90 10
-62 0 -94 -4 -90 -10z"/>
<path d="M4245 4520 c3 -5 44 -10 91 -10 49 0 84 4 84 10 0 6 -37 10 -91 10
-57 0 -88 -4 -84 -10z"/>
<path d="M3925 4446 c-39 -19 -62 -35 -53 -35 22 -1 146 48 154 60 11 19 -34
8 -101 -25z"/>
<path d="M4297 4444 c40 -19 80 -34 90 -31 22 5 -84 56 -131 63 -22 3 -11 -6
41 -32z"/>
<path d="M3989 4391 c-35 -33 -59 -64 -55 -68 3 -4 34 21 68 55 34 34 59 64
56 68 -4 3 -35 -21 -69 -55z"/>
<path d="M4210 4441 c0 -14 120 -134 127 -127 9 9 -42 70 -87 106 -22 17 -40
27 -40 21z"/>
<path d="M4056 4365 c-15 -30 -29 -69 -32 -87 l-6 -33 19 30 c27 41 65 145 54
145 -5 0 -21 -25 -35 -55z"/>
<path d="M4170 4418 c0 -14 44 -124 58 -146 25 -38 24 -18 -2 53 -21 57 -56
115 -56 93z"/>
<path d="M4127 4397 c-9 -24 -8 -127 2 -152 6 -15 10 -4 15 40 7 67 -5 143
-17 112z"/>
<path d="M3705 4366 c-113 -43 -165 -68 -165 -82 0 -18 6 -18 71 5 100 35 179
73 179 87 0 19 -14 17 -85 -10z"/>
<path d="M4475 4379 c-9 -13 -10 -11 50 -42 82 -41 194 -78 201 -66 3 6 4 12
3 13 -18 16 -225 106 -244 106 -2 0 -7 -5 -10 -11z"/>
<path d="M3770 4185 c-49 -49 -90 -97 -90 -107 0 -26 8 -23 61 27 100 93 143
145 131 157 -8 8 -34 -11 -102 -77z"/>
<path d="M4395 4260 c-9 -14 38 -72 114 -140 59 -54 81 -65 81 -40 0 13 -105
124 -150 160 -23 18 -41 26 -45 20z"/>
<path d="M3942 4113 c-36 -78 -62 -149 -62 -169 0 -50 50 30 96 153 28 73 29
83 10 83 -7 0 -27 -30 -44 -67z"/>
<path d="M4268 4174 c-16 -15 85 -248 104 -241 18 6 13 27 -35 141 -39 93 -55
115 -69 100z"/>
<path d="M4115 4081 c-8 -85 3 -203 19 -198 7 2 12 49 14 135 2 109 0 132 -12
132 -10 0 -16 -19 -21 -69z"/>
<path d="M4023 3396 c-68 -22 -128 -62 -171 -114 -33 -39 -50 -50 -94 -61 -78
-20 -216 -82 -300 -134 -225 -140 -411 -372 -498 -621 -36 -105 -264 -1210
-255 -1242 9 -40 240 -145 380 -174 l59 -12 -29 -21 c-56 -38 -140 -133 -172
-194 -55 -103 -63 -152 -63 -405 0 -214 1 -228 19 -238 13 -7 410 -10 1215
-10 l1196 0 16 25 c14 22 16 52 11 242 -3 149 -9 234 -19 268 -35 119 -117
237 -208 300 l-43 29 89 22 c163 39 360 129 370 169 5 24 -245 1115 -282 1227
-116 351 -408 641 -763 757 -54 18 -73 30 -118 80 -69 76 -136 110 -229 116
-44 3 -85 0 -111 -9z m204 -110 c69 -36 123 -123 123 -198 0 -39 -1 -40 -27
-33 -133 33 -260 33 -422 -1 l-34 -7 6 49 c13 114 102 205 212 216 41 4 109
-8 142 -26z m-447 -214 c0 -57 -1 -59 -37 -76 -107 -51 -237 -161 -308 -260
-90 -127 -139 -253 -157 -406 -8 -72 -16 -101 -32 -118 -23 -26 -24 -42 -11
-248 6 -104 10 -120 31 -141 20 -20 33 -23 96 -23 l74 0 17 -47 c45 -122 180
-283 291 -348 l46 -27 0 -78 0 -78 -52 -13 c-29 -6 -114 -29 -188 -51 -118
-33 -148 -38 -240 -38 -65 0 -140 8 -196 19 -96 21 -253 79 -292 109 l-24 18
107 530 c59 291 120 568 136 616 89 270 277 496 525 630 68 37 184 86 207 87
4 1 7 -25 7 -57z m825 -17 c253 -125 440 -335 542 -605 18 -48 283 -1157 283
-1185 0 -11 -142 -75 -215 -98 -107 -33 -211 -50 -320 -51 -79 -1 -111 5 -260
47 -234 66 -213 54 -212 128 l2 62 70 42 c137 84 245 206 300 340 l24 60 75 5
c115 8 118 13 130 203 5 85 6 166 2 181 -4 17 -19 32 -40 42 -33 16 -33 18
-39 93 -20 269 -197 535 -437 660 l-65 34 0 54 c0 52 1 54 25 48 14 -3 75 -30
135 -60z m-353 -79 c314 -61 554 -313 600 -630 10 -69 9 -89 0 -98 -10 -10
-74 -13 -250 -13 -213 0 -246 2 -325 22 -182 47 -320 122 -455 248 -68 64 -78
69 -126 73 -61 5 -106 -14 -133 -55 -10 -14 -34 -80 -53 -147 l-36 -121 -54 0
-55 0 3 50 c19 290 232 556 520 650 112 36 244 44 364 21z m-484 -547 c117
-108 256 -190 397 -235 61 -19 70 -25 67 -44 -2 -14 7 -34 27 -54 l31 -32 -30
-29 c-32 -31 -38 -53 -18 -73 20 -20 50 -14 80 15 l28 27 28 -27 c33 -32 67
-35 82 -7 12 23 4 45 -29 74 l-20 18 31 38 32 37 143 1 143 2 0 -99 c0 -310
-188 -560 -477 -635 -77 -20 -231 -21 -308 -1 -218 56 -401 236 -461 455 -8
30 -17 110 -21 178 -6 120 -6 122 15 122 31 0 46 30 86 174 20 71 41 135 47
142 24 29 60 15 127 -47z m-368 -363 c0 -46 3 -104 6 -130 l7 -46 -40 0 -40 0
-6 83 c-4 45 -7 103 -7 130 l0 47 40 0 40 0 0 -84z m962 72 c-9 -9 -15 -9 -24
0 -9 9 -7 12 12 12 19 0 21 -3 12 -12z m573 -105 c-4 -65 -8 -124 -10 -130 -3
-8 -21 -13 -42 -13 l-38 0 3 117 c2 65 5 124 7 131 3 7 21 12 45 12 l41 0 -6
-117z m-887 -732 c72 -9 188 -2 255 14 26 7 27 6 27 -39 l0 -46 -225 0 -225 0
0 54 0 54 46 -14 c25 -7 80 -18 122 -23z m482 -200 c58 -17 180 -51 271 -74
217 -56 296 -103 369 -218 59 -91 70 -148 70 -360 l0 -189 -135 0 -135 0 0 80
c0 43 -5 103 -11 132 -44 206 -231 337 -439 308 -146 -20 -254 -69 -353 -160
l-62 -58 -60 57 c-167 156 -421 209 -588 124 -142 -71 -217 -215 -217 -415 l0
-68 -136 0 -136 0 4 208 3 207 36 75 c79 164 151 212 416 281 104 27 235 62
293 78 l105 30 300 -3 300 -3 105 -32z m-769 -427 c103 -31 170 -73 257 -160
45 -46 87 -84 93 -84 6 0 20 12 32 26 99 120 168 171 286 211 74 25 180 30
241 12 66 -20 132 -78 168 -150 29 -56 34 -78 39 -162 l6 -97 -773 0 -772 0 4
108 c5 121 20 164 85 228 79 80 207 106 334 68z"/>
<path d="M3802 2168 c-19 -19 -14 -44 14 -78 l27 -31 -27 -28 c-57 -59 -4
-112 55 -55 l28 27 31 -27 c34 -28 59 -33 78 -14 19 19 14 42 -13 68 -14 13
-25 29 -25 35 0 6 11 22 25 35 27 26 32 49 13 68 -19 19 -42 14 -68 -13 -13
-14 -29 -25 -35 -25 -6 0 -22 11 -35 25 -26 27 -49 32 -68 13z"/>
<path d="M4050 1779 c-72 -12 -170 -59 -231 -109 -51 -44 -64 -68 -54 -100 10
-32 43 -24 97 25 27 24 75 57 106 72 51 25 68 28 157 28 88 0 107 -3 157 -27
32 -15 79 -47 106 -72 53 -50 85 -58 102 -26 14 26 3 46 -48 92 -106 95 -255
140 -392 117z"/>
</g>
</svg>
