<?xml version="1.0" standalone="no"?>
<!DOCTYPE svg PUBLIC "-//W3C//DTD SVG 20010904//EN"
 "http://www.w3.org/TR/2001/REC-SVG-20010904/DTD/svg10.dtd">
<svg version="1.0" xmlns="http://www.w3.org/2000/svg"
 width="800.000000pt" height="600.000000pt" viewBox="0 0 800.000000 600.000000"
 preserveAspectRatio="xMidYMid meet">

<g transform="translate(0.000000,600.000000) scale(0.100000,-0.100000)"
fill="#000000" stroke="none">
<path d="M4378 5272 c-29 -19 -55 -36 -57 -38 -2 -2 3 -38 13 -80 9 -42 15
-79 12 -81 -2 -2 -31 3 -64 11 -79 21 -233 21 -303 0 -139 -41 -285 -149 -359
-264 -81 -127 -108 -307 -71 -466 74 -311 392 -515 701 -450 95 20 220 81 287
141 247 219 269 614 48 853 -30 33 -55 62 -55 65 0 3 33 16 73 29 39 12 75 26
78 30 3 5 5 38 5 74 l-1 66 -127 73 -126 73 -54 -36z m156 -95 c82 -48 115
-77 87 -77 -17 0 -211 113 -211 122 0 19 41 4 124 -45z m-84 -71 c0 -16 -27
-52 -34 -46 -3 3 -8 25 -12 49 l-7 43 27 -17 c14 -9 26 -23 26 -29z m98 -44
l22 -17 -45 -16 c-48 -18 -54 -12 -29 26 19 29 22 30 52 7z m-290 -32 c90 -21
192 -79 261 -149 80 -80 125 -166 147 -276 37 -187 -16 -357 -153 -497 -91
-92 -219 -147 -358 -153 -153 -8 -288 46 -401 159 -75 75 -107 128 -144 240
-44 134 -14 317 73 449 68 102 206 199 322 226 54 12 200 13 253 1z"/>
<path d="M4016 4999 c-78 -18 -183 -77 -243 -137 -207 -205 -201 -545 14 -742
249 -228 642 -160 801 138 182 342 -70 756 -458 751 -41 -1 -93 -5 -114 -10z
m235 -63 c160 -49 282 -169 321 -316 67 -256 -80 -499 -342 -566 -187 -48
-408 58 -499 239 -127 253 -3 544 274 641 53 18 188 19 246 2z"/>
<path d="M1635 3941 c-8 -85 3 -203 19 -198 7 2 12 49 14 135 2 109 0 132 -12
132 -10 0 -16 -19 -21 -69z"/>
<path d="M1406 3962 c-12 -20 83 -252 103 -252 20 0 12 37 -29 136 -41 100
-63 134 -74 116z"/>
<path d="M1852 3893 c-36 -78 -62 -149 -62 -169 0 -50 50 30 96 153 28 73 29
83 10 83 -7 0 -27 -30 -44 -67z"/>
<path d="M1196 3822 c-6 -11 100 -129 149 -166 26 -20 40 -25 47 -18 8 8 -16
38 -80 101 -87 88 -105 100 -116 83z"/>
<path d="M1998 3742 c-85 -85 -103 -112 -75 -112 18 0 187 169 187 187 0 28
-27 10 -112 -75z"/>
<path d="M1647 3647 c-10 -26 -8 -139 2 -156 13 -21 24 85 14 134 -7 31 -11
36 -16 22z"/>
<path d="M1545 3618 c14 -51 58 -148 67 -148 12 0 3 30 -32 108 -29 62 -47 83
-35 40z"/>
<path d="M1730 3578 c-37 -82 -46 -113 -30 -103 21 13 81 165 65 165 -3 0 -19
-28 -35 -62z"/>
<path d="M1067 3623 c-15 -14 -3 -22 87 -62 104 -45 156 -60 156 -42 0 13 -79
54 -167 87 -72 27 -67 26 -76 17z"/>
<path d="M2112 3581 c-100 -42 -128 -59 -114 -73 15 -15 252 80 252 101 0 20
-44 11 -138 -28z"/>
<path d="M1450 3569 c0 -14 120 -132 127 -125 8 8 -52 80 -92 110 -19 15 -35
22 -35 15z"/>
<path d="M1789 3521 c-35 -33 -59 -64 -55 -68 3 -4 34 21 68 55 34 34 59 64
56 68 -4 3 -35 -21 -69 -55z"/>
<path d="M1390 3480 c0 -8 101 -55 143 -65 47 -12 30 5 -35 34 -72 32 -108 43
-108 31z"/>
<path d="M1864 3471 c-91 -33 -153 -73 -86 -56 43 10 142 57 142 66 0 5 -1 9
-2 8 -2 0 -26 -9 -54 -18z"/>
<path d="M4023 3396 c-68 -22 -128 -62 -171 -114 -33 -39 -50 -50 -94 -61 -78
-20 -216 -82 -300 -134 -225 -140 -411 -372 -498 -621 -36 -105 -264 -1210
-255 -1242 9 -40 240 -145 380 -174 l59 -12 -29 -21 c-56 -38 -140 -133 -172
-194 -55 -103 -63 -152 -63 -405 0 -214 1 -228 19 -238 13 -7 410 -10 1215
-10 l1196 0 16 25 c14 22 16 52 11 242 -3 149 -9 234 -19 268 -35 119 -117
237 -208 300 l-43 29 89 22 c163 39 360 129 370 169 5 24 -245 1115 -282 1227
-116 351 -408 641 -763 757 -54 18 -73 30 -118 80 -69 76 -136 110 -229 116
-44 3 -85 0 -111 -9z m204 -110 c69 -36 123 -123 123 -198 0 -39 -1 -40 -27
-33 -133 33 -260 33 -422 -1 l-34 -7 6 49 c13 114 102 205 212 216 41 4 109
-8 142 -26z m-447 -214 c0 -57 -1 -59 -37 -76 -107 -51 -237 -161 -308 -260
-90 -127 -139 -253 -157 -406 -8 -72 -16 -101 -32 -118 -23 -26 -24 -42 -11
-248 6 -104 10 -120 31 -141 20 -20 33 -23 96 -23 l74 0 17 -47 c45 -122 180
-283 291 -348 l46 -27 0 -78 0 -78 -52 -13 c-29 -6 -114 -29 -188 -51 -118
-33 -148 -38 -240 -38 -65 0 -140 8 -196 19 -96 21 -253 79 -292 109 l-24 18
107 530 c59 291 120 568 136 616 89 270 277 496 525 630 68 37 184 86 207 87
4 1 7 -25 7 -57z m825 -17 c253 -125 440 -335 542 -605 18 -48 283 -1157 283
-1185 0 -11 -142 -75 -215 -98 -107 -33 -211 -50 -320 -51 -79 -1 -111 5 -260
47 -236 67 -217 55 -213 128 l3 62 70 42 c137 84 245 206 300 340 l24 60 75 5
c115 8 118 13 130 203 5 85 6 166 2 181 -4 17 -19 32 -40 42 -33 16 -33 18
-39 93 -20 269 -197 535 -437 660 l-65 34 0 54 c0 52 1 54 25 48 14 -3 75 -30
135 -60z m-353 -79 c314 -61 554 -313 600 -630 10 -69 9 -89 0 -98 -10 -10
-74 -13 -250 -13 -256 0 -298 6 -326 51 -18 27 -53 32 -62 9 -8 -21 -15 -19
-100 16 -98 41 -202 110 -292 194 -68 64 -78 69 -126 73 -61 5 -106 -14 -133
-55 -10 -14 -34 -80 -53 -147 l-36 -121 -54 0 -55 0 3 50 c19 290 232 556 520
650 112 36 244 44 364 21z m-479 -552 c40 -36 102 -84 139 -107 37 -23 66 -46
64 -52 -5 -18 -89 -55 -124 -55 -45 0 -75 -25 -61 -51 22 -42 161 -13 222 46
l35 34 60 -25 c33 -13 109 -36 168 -50 98 -23 128 -26 297 -25 l187 0 0 -98
c0 -310 -188 -560 -477 -635 -77 -20 -231 -21 -308 -1 -218 56 -401 236 -461
455 -8 30 -17 110 -21 178 -6 120 -6 122 15 122 31 0 46 30 86 174 20 71 41
135 47 142 24 29 59 15 132 -52z m-373 -358 c0 -46 3 -104 6 -130 l7 -46 -40
0 -40 0 -6 83 c-4 45 -7 103 -7 130 l0 47 40 0 40 0 0 -84z m1535 -33 c-4 -65
-8 -124 -10 -130 -3 -8 -21 -13 -42 -13 l-38 0 3 117 c2 65 5 124 7 131 3 7
21 12 45 12 l41 0 -6 -117z m-887 -732 c72 -9 188 -2 255 14 26 7 27 6 27 -39
l0 -46 -225 0 -225 0 0 54 0 54 46 -14 c25 -7 80 -18 122 -23z m482 -200 c58
-17 180 -51 271 -74 217 -56 296 -103 369 -218 59 -91 70 -148 70 -360 l0
-189 -135 0 -135 0 0 80 c0 43 -5 103 -11 132 -44 206 -231 337 -439 308 -146
-20 -254 -69 -353 -160 l-62 -58 -60 57 c-167 156 -421 209 -588 124 -142 -71
-217 -215 -217 -415 l0 -68 -136 0 -136 0 4 208 3 207 36 75 c79 164 151 212
416 281 104 27 235 62 293 78 l105 30 300 -3 300 -3 105 -32z m-769 -427 c103
-31 170 -73 257 -160 45 -46 87 -84 93 -84 6 0 20 12 32 26 99 120 168 171
286 211 74 25 180 30 241 12 66 -20 132 -78 168 -150 29 -56 34 -78 39 -162
l6 -97 -773 0 -772 0 4 108 c5 121 20 164 85 228 79 80 207 106 334 68z"/>
<path d="M3801 2082 c-41 -22 -56 -43 -48 -66 8 -20 45 -20 71 -1 26 20 106
19 134 -1 57 -40 95 18 39 60 -40 30 -149 34 -196 8z"/>
<path d="M4291 2083 c-40 -21 -57 -44 -48 -67 8 -20 45 -20 71 -1 26 20 106
19 134 -1 57 -40 95 18 39 60 -39 29 -149 34 -196 9z"/>
<path d="M4067 1920 c-154 -27 -298 -171 -314 -314 -8 -65 5 -70 123 -50 62
10 158 16 259 16 101 0 197 -6 259 -16 110 -18 126 -14 126 35 0 45 -38 135
-80 187 -85 109 -235 165 -373 142z m198 -94 c85 -39 153 -111 171 -182 6 -25
5 -26 -17 -21 -13 3 -83 11 -154 17 -122 9 -325 2 -407 -16 -34 -7 -36 6 -7
61 78 148 260 210 414 141z"/>
<path d="M1015 3379 c-13 -19 6 -24 113 -27 106 -4 170 8 157 28 -9 14 -262
13 -270 -1z"/>
<path d="M2025 3379 c-13 -19 6 -24 113 -27 106 -4 170 8 157 28 -9 14 -262
13 -270 -1z"/>
<path d="M1365 3370 c3 -5 44 -10 90 -10 46 0 87 5 90 10 4 6 -28 10 -90 10
-62 0 -94 -4 -90 -10z"/>
<path d="M1765 3370 c3 -5 44 -10 91 -10 49 0 84 4 84 10 0 6 -37 10 -91 10
-57 0 -88 -4 -84 -10z"/>
<path d="M1445 3296 c-39 -19 -62 -35 -53 -35 22 -1 146 48 154 60 11 19 -34
8 -101 -25z"/>
<path d="M1817 3294 c40 -19 80 -34 90 -31 22 5 -84 56 -131 63 -22 3 -11 -6
41 -32z"/>
<path d="M1509 3241 c-35 -33 -59 -64 -55 -68 3 -4 34 21 68 55 34 34 59 64
56 68 -4 3 -35 -21 -69 -55z"/>
<path d="M1730 3291 c0 -14 120 -134 127 -127 9 9 -42 70 -87 106 -22 17 -40
27 -40 21z"/>
<path d="M1576 3215 c-15 -30 -29 -69 -32 -87 l-6 -33 19 30 c27 41 65 145 54
145 -5 0 -21 -25 -35 -55z"/>
<path d="M1690 3268 c0 -14 44 -124 58 -146 25 -38 24 -18 -2 53 -21 57 -56
115 -56 93z"/>
<path d="M1647 3247 c-9 -24 -8 -127 2 -152 6 -15 10 -4 15 40 7 67 -5 143
-17 112z"/>
<path d="M1225 3216 c-113 -43 -165 -68 -165 -82 0 -18 6 -18 71 5 100 35 179
73 179 87 0 19 -14 17 -85 -10z"/>
<path d="M1995 3229 c-9 -13 -10 -11 50 -42 82 -41 194 -78 201 -66 3 6 4 12
3 13 -18 16 -225 106 -244 106 -2 0 -7 -5 -10 -11z"/>
<path d="M1290 3035 c-49 -49 -90 -97 -90 -107 0 -26 8 -23 61 27 100 93 143
145 131 157 -8 8 -34 -11 -102 -77z"/>
<path d="M1915 3110 c-9 -14 38 -72 114 -140 59 -54 81 -65 81 -40 0 13 -105
124 -150 160 -23 18 -41 26 -45 20z"/>
<path d="M1462 2963 c-36 -78 -62 -149 -62 -169 0 -50 50 30 96 153 28 73 29
83 10 83 -7 0 -27 -30 -44 -67z"/>
<path d="M1788 3024 c-16 -15 85 -248 104 -241 18 6 13 27 -35 141 -39 93 -55
115 -69 100z"/>
<path d="M1635 2931 c-8 -85 3 -203 19 -198 7 2 12 49 14 135 2 109 0 132 -12
132 -10 0 -16 -19 -21 -69z"/>
<path d="M6875 1533 c-72 -52 -211 -197 -278 -290 -31 -44 -80 -124 -108 -177
-28 -53 -59 -101 -69 -106 -27 -15 -67 -12 -106 6 -19 9 -43 14 -53 11 -16 -4
-21 2 -26 24 -8 35 -49 69 -84 69 -63 0 -120 -68 -93 -111 10 -16 7 -20 -26
-29 -21 -5 -53 -13 -70 -16 -38 -8 -82 -56 -82 -90 0 -40 48 -82 128 -109 92
-32 252 -63 364 -72 148 -10 190 16 262 167 25 54 54 93 100 139 36 36 69 62
72 58 4 -4 -4 -89 -19 -190 -20 -141 -23 -185 -14 -194 7 -6 33 -15 59 -18 57
-9 63 0 72 100 21 212 50 306 137 454 26 43 33 67 37 126 4 67 2 80 -26 139
-36 77 -89 146 -111 146 -9 0 -38 -17 -66 -37z m75 -71 c-131 -88 -282 -267
-400 -476 -55 -97 -87 -120 -169 -119 -57 1 -171 37 -171 54 0 12 62 12 96 -1
44 -17 109 -14 143 6 22 13 44 45 78 113 76 152 224 336 357 443 l49 39 21
-21 21 -22 -25 -16z m73 -88 c25 -71 15 -133 -34 -216 -69 -113 -95 -191 -113
-333 -23 -174 -23 -175 -47 -175 -17 0 -19 5 -14 33 19 115 54 391 49 398 -11
19 -37 7 -105 -46 -82 -67 -135 -134 -183 -235 -53 -112 -90 -127 -262 -104
-179 23 -340 66 -372 98 -20 20 -8 60 21 73 13 6 57 17 98 24 72 12 76 11 124
-13 67 -34 149 -58 200 -58 93 0 152 41 206 144 56 106 144 229 225 316 81 86
161 152 179 147 6 -2 18 -26 28 -53z m-843 -364 c11 -7 12 -14 5 -26 -27 -43
-95 -31 -81 14 8 24 48 30 76 12z"/>
</g>
</svg>
